# xmcd
#
# Track frame offsets: 
#        150
#        12605
#        27232
#        41242
#        59307
#        74627
#        89550
#        104270
#        117990
#        132030
#        146140
#        160557
#        175062
#        190772
#        203727
#        218140
#        231457
#        246147
#
# Disc length: 3469 seconds
#
# Revision: 1
# Processed by: cddbd v1.5.2PL0 Copyright (c) Steve Scherf et al.
# Submitted via: ExactAudioCopy v1.0b3
#
DISCID=0a0d8b12
DTITLE=Various  - Τα Ρεμπέτικα CD2
DYEAR=1900
DGENRE=Rembetika
TTITLE0=Πάνος Γαβαλάς - Ρία Κούρτη Εβίβα Ρεμπέτες
TTITLE1=Γρηγόρης Μπιθικώτσης -  Το Παιδί Που Μπήκε Τώρα
TTITLE2=Πόλυ Πάνου, Αντώνης Κλειδωνιάρης -  Άλλα Μου Λεν' Τα Μάτια Σου
TTITLE3=Μιχάλης Γενίτσαρης -  Θα Σαλτάρω Θα Σαλτάρω
TTITLE4=Στράτος Παγιουμτζής -  Μπήκε Ο Χειμώνας
TTITLE5=Πρόδρομος Τσαουσάκης -  Μπρος Στο Ρημαγμένο Σπίτι
TTITLE6=Κώστας Ρούκουνας - Κάτω Στα Λεμονάδικα
TTITLE7=Μπάμπης Γκολές -  Μου 'Φαγες Όλα Τα Δαχτυλίδια
TTITLE8=Μάρκος Βαμβακάρης -  Όμορφη Μελαχροινή
TTITLE9=Πόλυ Πάνου -  Σάπιο Σανίδι Πάτησα
TTITLE10=Γρηγόρης Μπιθικώτσης, Βασίλης Τσιτσάνης -  Το Χρήμα Δεν Το Λο
TTITLE10=γαριάζω
TTITLE11=Τάκης Μπίνης -  Ο Παπάς (Οι Παπατζήδες)
TTITLE12=Στράτος Παγιουμτζής -  Γλυκοχαράζουν Τα Βουνά
TTITLE13=Ρίτα Αμπατζή -  Γκαρσόνα
TTITLE14=Βαγγέλης Περπινιάδης -  Μέσα Στης Ζωής Τα Μονοπάτια
TTITLE15=Ιωάννα Γεωργακοπούλου, Μανώλης Χιώτης -  Όταν Καπνίζει Ο Λουλ
TTITLE15=άς
TTITLE16=Μάρκος Βαμβακάρης, Σούλα Καλφοπούλου, Βασίλης Τσιτσάνης -  Αρ
TTITLE16=αμπάς Περνά
TTITLE17=Χρηστάκης -  Έμαθα Πως Είσαι Μάγκας
EXTD=
EXTT0=
EXTT1=
EXTT2=
EXTT3=
EXTT4=
EXTT5=
EXTT6=
EXTT7=
EXTT8=
EXTT9=
EXTT10=
EXTT11=
EXTT12=
EXTT13=
EXTT14=
EXTT15=
EXTT16=
EXTT17=
PLAYORDER=
